<svg xmlns="http://www.w3.org/2000/svg" viewBox="0 0 66 100.8"><path fill="#FFF" d="M56.33 9.23C43.44-3.08 22.56-3.08 9.67 9.23c-12.89 12.3-12.89 32.25 0 44.54 0 0 23.32 21.83 23.32 47.03 0-25.2 23.34-47.03 23.34-47.03 12.9-12.29 12.9-32.25 0-44.54z"/><path fill="#6BC6B3" d="M47.04 45.52c-.64-3.28.13-6.95.03-10.28-.12-3.76-.71-7.48-.67-11.25.04-3.04.54-6.17-.5-9.09.07-.33.13-.66.2-1 .27-1.46-4.58-.69-5.34.65-.48.39-.73.86-.52 1.34.05.12.1.24.14.37-.92 4.48-2.2 8.83-3.67 13.17-.56 1.66-1.24 3.29-1.82 4.95-.81-1.55-1.64-3.07-2.3-4.73-1.92-4.81-3.66-9.66-6-14.28.27-2.14-4.48-1.92-5.42.04-1.13 2.37-.99 4.76-.61 7.3.42 2.86.49 5.67.53 8.55.07 5.57.5 11.12.58 16.68-.5.55-.65 1.23-.13 1.92.23.3.5.54.8.77 1.27 1.01 4.9.15 4.89-1.78-.02-5.77-.44-11.53-.59-17.3-.02-.56-.03-1.13-.03-1.69.08.2.16.41.24.61.9 2.25 1.83 4.43 3.06 6.51 1.21 2.07 1.82 4.29 2.52 6.55-.26.3-.42.65-.33.99-.05.25.1.41.35.5.89.77 2.58.38 3.51-.01.4-.17.79-.36 1.16-.59.48-.3 1.24-.95 1.02-1.62l-.12-.39c.66-1.78.99-3.62 1.35-5.5.38-2 1.09-3.89 1.81-5.79.07.87.15 1.73.22 2.6.29 3.57.05 7.1.01 10.67-.01 1.19.07 2.29.31 3.45.1.48.51 2.53.39 2.64-.86.79-.61 1.76.54 2.01 1.28.28 2.91-.15 3.88-1.04 1.68-1.54.88-3.97.51-5.93z"/></svg>