<svg xmlns="http://www.w3.org/2000/svg" viewBox="0 135.87 459.75 79.8"><path d="M44.47 157.61c-3.57-2.98-8.14-4.96-12.9-4.96-3.57 0-8.34 2.08-8.34 6.25 0 4.37 5.26 6.06 8.64 7.15l4.96 1.49c10.42 3.08 18.46 8.34 18.46 20.45 0 7.45-1.79 15.09-7.74 20.15-5.85 4.96-13.7 7.05-21.24 7.05-9.43 0-18.66-3.18-26.31-8.54l8.34-15.68c4.87 4.27 10.62 7.74 17.27 7.74 4.57 0 9.43-2.28 9.43-7.54 0-5.46-7.64-7.34-11.81-8.54-12.21-3.48-20.25-6.65-20.25-21.14 0-15.19 10.82-25.11 25.81-25.11 7.54 0 16.77 2.38 23.43 6.15l-7.75 15.08zm47.36-2.78v12.51h21.94v16.48H91.83v12.9h23.13v16.48H72.38v-74.84h42.58v16.48l-23.13-.01zm37.59-16.48h27.59c20.84 0 38.02 16.38 38.02 37.42 0 21.04-17.27 37.42-38.02 37.42h-27.59v-74.84zm19.45 58.37h4.37c11.61 0 21.54-6.35 21.54-20.94 0-13.4-8.83-20.94-21.34-20.94h-4.56v41.88zm138-22.34c0 24.22-17.37 41.29-41.39 41.29s-41.39-17.07-41.39-41.29c0-22.63 19.85-38.51 41.39-38.51s41.39 15.88 41.39 38.51zm-62.53.1c0 12.9 9.53 22.33 21.14 22.33 11.61 0 21.14-9.43 21.14-22.33 0-10.32-9.53-19.75-21.14-19.75-11.61 0-21.14 9.43-21.14 19.75zm72.9-36.13h19.45l35.64 45.76h.2v-45.76h19.45v74.84h-19.45l-35.63-45.86h-.2v45.86h-19.45v-74.84zm110.11 61.84l-5.16 13h-20.65l28.79-74.84h21.24l28.19 74.84h-20.75l-4.86-13h-26.8zm13.6-38.71h-.2l-8.04 23.82h16.18l-7.94-23.82z" fill="#FFF"/></svg>