<svg xmlns="http://www.w3.org/2000/svg" width="25" height="25" viewBox="0 0 70 70"><path d="M0 0h70v70H0V0z" fill="#f7df1e"/><path d="M47 54.7c1.4 2.3 3.2 4 6.5 4 2.7 0 4.5-1.4 4.5-3.2 0-2.3-1.8-3.1-4.8-4.4l-1.6-.7c-4.7-2-7.9-4.6-7.9-9.9 0-4.9 3.8-8.7 9.6-8.7 4.2 0 7.2 1.5 9.4 5.3l-5.1 3.3c-1.1-2-2.3-2.8-4.2-2.8-1.9 0-3.1 1.2-3.1 2.8 0 2 1.2 2.8 4 4l1.6.7c5.6 2.4 8.7 4.8 8.7 10.3 0 5.9-4.7 9.2-10.9 9.2-6.1 0-10.1-2.9-12-6.7l5.3-3.2zm-23.2.6c1 1.8 2 3.4 4.2 3.4s3.5-.8 3.5-4.1V32.1h6.6v22.5c0 6.8-4 9.9-9.8 9.9-5.3 0-8.3-2.7-9.9-6l5.4-3.2z"/></svg>