<svg xmlns="http://www.w3.org/2000/svg" viewBox="0 0 142 138.5" width="20" height="20"><path fill="#fff" d="M132.5 35.4c-6.3-10.9-15-19.5-25.8-25.8C95.8 3.2 83.9 0 71 0 58.1 0 46.2 3.2 35.4 9.5c-10.9 6.3-19.5 15-25.8 25.8C3.2 46.2 0 58.1 0 71c0 15.5 4.5 29.4 13.5 41.7 9 12.4 20.7 20.9 35 25.7 1.7.3 2.9.1 3.7-.6.8-.7 1.2-1.7 1.2-2.8v-13.2l-2.1.4c-1.4.2-3.1.4-5.1.3-2.1 0-4.2-.2-6.4-.6-2.2-.4-4.3-1.3-6.2-2.8-1.9-1.4-3.3-3.3-4.1-5.7l-.9-2.1c-.6-1.4-1.6-3-2.9-4.7-1.3-1.7-2.7-2.9-4-3.5l-.6-.5c-.4-.3-.8-.7-1.2-1.1-.4-.4-.6-.9-.8-1.3-.2-.4 0-.8.5-1.1.5-.3 1.4-.4 2.7-.4l1.8.3c1.2.2 2.8 1 4.6 2.2 1.8 1.2 3.3 2.8 4.5 4.8 1.4 2.5 3.1 4.5 5.1 5.8 2 1.3 4 2 6.1 2 2 0 3.8-.2 5.3-.5s2.9-.8 4.2-1.4c.6-4.1 2.1-7.3 4.5-9.5-3.5-.4-6.7-.9-9.5-1.7-2.8-.7-5.7-1.9-8.7-3.6-3-1.7-5.5-3.7-7.4-6.2-2-2.5-3.6-5.7-4.9-9.7-1.3-4-1.9-8.6-1.9-13.9 0-7.5 2.4-13.8 7.3-19-2.3-5.6-2.1-11.9.6-18.9 1.8-.6 4.4-.1 8 1.2 3.5 1.4 6.1 2.6 7.7 3.6 1.6 1 2.9 1.8 3.9 2.5 5.7-1.6 11.6-2.4 17.7-2.4s12 .8 17.8 2.4l3.5-2.2c2.4-1.5 5.2-2.8 8.5-4.1 3.3-1.2 5.8-1.6 7.5-1 2.8 7 3 13.3.7 18.9 4.9 5.2 7.3 11.6 7.3 19 0 5.2-.6 9.9-1.9 13.9-1.3 4-2.9 7.3-4.9 9.7-2 2.4-4.5 4.5-7.5 6.1-3 1.7-5.9 2.9-8.7 3.6-2.8.7-6 1.3-9.5 1.7 3.2 2.8 4.8 7.1 4.8 13.1V135c0 1.1.4 2 1.2 2.8.8.7 2 1 3.7.6 14.3-4.7 26-13.3 35-25.7 9-12.4 13.5-26.3 13.5-41.7-.2-12.9-3.4-24.8-9.7-35.6z"/></svg>