<svg xmlns="http://www.w3.org/2000/svg" viewBox="0 0 142.5 136.2" width="20" height="20"><path fill="#fff" d="M1.8 44.3h30.6v91.9H1.8zm131 8.3c-6.4-7-14.9-10.5-25.5-10.5-3.9 0-7.4.5-10.6 1.4-3.2 1-5.9 2.3-8.1 4-2.2 1.7-3.9 3.3-5.2 4.8-1.2 1.4-2.4 3.1-3.6 4.9v-13H49.3l.1 4.5c.1 3 .1 12.1.1 27.5 0 15.3-.1 35.3-.2 60h30.5V84.9c0-3.2.3-5.7 1-7.5 1.3-3.2 3.3-5.8 5.9-7.9 2.6-2.1 5.9-3.2 9.8-3.2 5.3 0 9.2 1.8 11.7 5.5s3.8 8.8 3.8 15.3v49.2h30.5V83.5c0-13.6-3.2-23.8-9.7-30.9zM17.3 0C12.1 0 8 1.5 4.8 4.5 1.6 7.5 0 11.3 0 15.9c0 4.5 1.5 8.3 4.6 11.3 3.1 3 7.2 4.5 12.2 4.5h.2c5.2 0 9.4-1.5 12.6-4.5 3.2-3 4.7-6.8 4.7-11.3-.1-4.6-1.6-8.4-4.7-11.4S22.4 0 17.3 0z"/></svg>