<svg xmlns="http://www.w3.org/2000/svg" width="91" height="40" viewBox="0 0 138.8 64.4"><style>.st1{fill:#f6f6f6}</style><linearGradient id="SVGID_1_" gradientUnits="userSpaceOnUse" x1="50.078" y1="309.544" x2="50.078" y2="368.61" gradientTransform="translate(19.711 -306.999)"><stop offset=".15" stop-color="#2a4f84"/><stop offset=".388" stop-color="#294e82"/><stop offset="1" stop-color="#172e4e"/></linearGradient><path d="M129.1 50.2c0 6.3-5.1 11.4-11.4 11.4H21.9c-6.3 0-11.4-5.1-11.4-11.4V14c0-6.3 5.1-11.4 11.4-11.4h95.7c6.3 0 11.4 5.1 11.4 11.4l.1 36.2z" fill="#294e83"/><path class="st1" d="M109.1 31.4c5 1.8 7.5 4.8 7.5 9 0 2.8-1 5-3.1 6.7-2.1 1.6-5 2.7-8.9 2.7-3.8 0-7.4-1.1-10.7-2.9 0-1 .3-2 .8-3.2.5-1.2 1-2.1 1.7-2.7 3 1.6 5.6 2.3 7.9 2.3 1.1 0 1.9-.2 2.4-.5.6-.4.8-.8.8-1.4 0-1.1-.9-2-2.6-2.5l-3.1-1.2c-4.7-1.7-7.1-4.5-7.1-8.4 0-2.8 1-5.1 3-6.7 2-1.7 4.6-3.1 8-3.1 1.7 0 3.5.2 5.5.7 2 .5 3.6 1.6 4.9 2.2.1 1-.1 2.2-.6 3.4-.5 1.3-1.1 2.1-1.8 2.7-3.2-1.4-5.8-2.1-7.9-2.1-.8 0-1.3.2-1.7.5-.4.3-.6.8-.6 1.3 0 .9.7 1.6 2.1 2.1l3.5 1.1zm-25.1 0c5 1.8 7.5 4.8 7.5 9 0 2.8-1 5-3.1 6.7-2.1 1.6-5 2.7-8.9 2.7-3.8 0-7.4-1.1-10.7-2.9 0-1 .3-2 .8-3.2.5-1.2 1-2.1 1.7-2.7 3 1.6 5.6 2.3 7.9 2.3 1.1 0 1.9-.2 2.4-.5.6-.4.8-.8.8-1.4 0-1.1-.9-2-2.6-2.5l-3.1-1.2c-4.7-1.7-7.1-4.5-7.1-8.4 0-2.8 1-5.1 3-6.7 2-1.7 4.6-3.1 8-3.1 1.7 0 3.5.2 5.5.7 2 .5 3.6 1.6 4.9 2.2.1 1-.1 2.2-.6 3.4-.5 1.3-1.1 2.1-1.8 2.7-3.2-1.4-5.8-2.1-7.9-2.1-.8 0-1.3.2-1.7.5-.4.3-.6.8-.6 1.3 0 .9.7 1.6 2.1 2.1l3.5 1.1zm-18.2.6c0-1.7-.3-3.3-.8-4.8s-1.3-2.7-2.3-3.7c-1-1-2.3-1.9-3.7-2.5-1.5-.6-3.1-1.5-4.9-1.5-2.1 0-4 1-5.6 1.7-1.6.7-2.9 1.8-4 3.1-1 1.3-1.8 2.8-2.3 4.6-.5 1.8-.8 3.7-.8 5.8 0 2.2.2 4.2.6 6 .4 1.8 1.1 3.4 2.1 4.8 1 1.3 2.3 2.4 3.9 3.1 1.6.7 3.6 1.3 6 1.3 4.4 0 8.1-1.3 11.1-3.4-.3-2.2-1.1-3.9-2.3-5.1-1.5.6-2.9 1-4.1 1.2-1.2.3-2.2.4-3.1.4-1.8 0-3.1-.5-3.9-1.4-.8-.9-1.2-2-1.3-3.7h14.7c.4-1.5.7-3.6.7-5.9zm-15.4.3c.1-1.9.5-3.9 1-4.8.6-.8 1.5-1.3 2.7-1.3 1.2 0 2.2.4 2.8 1.3.6.9.9 2.7.9 4.1v.6l-7.4.1z"/><path d="M132.2 36c-1.6 1.4-2.6 3.4-2.6 6v9.8c0 3.2-1 5.7-3.3 7.4-2.3 1.7-4.9 2.5-8 2.6h-1.8v-4.9c1.5-.5 2.1-1 2.6-1.6 1-1 1.9-2.7 1.9-5v-7.9s.6-4.8 1.6-6.3 2.9-2.8 5.7-4c-3.1-1.4-5.2-3.3-6.3-5.6-.6-1.4-.6-5.5-.6-5.5v-7.2c0-2.4-.8-4.1-1.8-5.1-.6-.6-1.4-1.1-3.1-1.5V2.6h4.5c1.9 0 3.5 1 4.9 2.1 1.5 1.2 2.6 2.8 3.2 4.9.4 1.2.4 2.3.4 3.4v8.3c0 3 .9 5.2 2.4 6.7.9.8 2.1 1.6 4.1 2.3V34c-1.6.5-2.8 1.1-3.8 2h0zM19.7 2.7h0c-.6 0-1.1-.1-1.6-.1-1.9 0-3.5 1-4.8 2.1-1.5 1.2-2.8 2.7-3.2 4.8-.2 1.2-.2 2.3-.2 3.3v8.4c0 3-1.1 5.2-2.6 6.7-.8.8-2.7 1.6-4.7 2.3V34c1.8.5 3.6 1.2 4.6 2 1.6 1.4 2.8 3.4 2.8 6v9.8c0 3.2.8 5.7 3.1 7.4 2.3 1.7 4.9 2.5 8 2.6h2v-4.9c-1.6-.5-2.5-1-3.1-1.6-1.1-1-1.8-2.7-1.8-5v-7.9c0-2.7-.5-4.8-1.5-6.3s-2.9-2.8-5.8-4c3.2-1.4 5.3-3.3 6.4-5.6.6-1.4.9-3.2.9-5.5v-7.2c0-2.4.6-4.1 1.5-5 .5-.5 1.5-.9 2.8-1.3h1.8V2.7h-4.6 0s0 0 0 0z" fill="#f6f6f6" stroke="#404040" stroke-width="1.151" stroke-miterlimit="10"/><path class="st1" d="M38.5 42.1h-1.7c-1.7 0-2.3-.9-2.3-2.6V7.4c0-1.9-.6-3.3-1.3-4.1-.7-.8-2-.8-3.7-.8h-3.3l-.7.1.5 4.8v33.8c-.2 2.7.4 4.7 1.5 5.9 1.1 1.2 2.9 1.9 5.5 1.9 1.8 0 3.8-.2 6-.6.1-.4.2-1.2.2-2.4s-.2-2.5-.7-3.7v-.2z"/></svg>