<svg xmlns="http://www.w3.org/2000/svg" width="25" height="24" viewBox="0 0 70 66.8"><path d="M35.5 66.6c7.7-27.4 7.4-27.5 13-47l1.3.8c.7.4 1.3.1 1.3-.8v-9.3c1.5-5.1 2.6-9.1 3-10.3h6l10 9.2-6.5 5.7 4.9 5.3-32.7 46.4c-.2.3-.4.2-.3 0zm3.5-59c.3 0 .5.2.5.4v4.8c0 .2-.2.4-.5.4h-8c-.3 0-.5-.2-.5-.4V8c0-.2.2-.4.5-.4h8zm10-5.3l-8.9 5.1c.1.2.2.3.2.5v4.8c0 .2-.1.5-.3.6l8.9 5.2c.6.4 1.1.1 1.1-.6V3c.1-.7-.4-1-1-.7zM29.7 12.8V8c0-.2.1-.4.2-.5L21 2.3c-.6-.3-1.1 0-1.1.7v15c0 .7.5 1 1.1.6l8.9-5.2c-.1-.2-.2-.4-.2-.6zm4.5 53.8h.3c-7.7-27.4-7.4-27.5-13-47l-1.3.8c-.7.4-1.3.1-1.3-.8v-9.3C17.4 5.2 16.3 1.2 16 0h-6L0 9.2l6.5 5.7-4.9 5.4c0-.1 32.6 46.3 32.6 46.3zm.6-43.5c1.3 0 2.4-1.1 2.4-2.4 0-1.3-1.1-2.4-2.4-2.4s-2.4 1.1-2.4 2.4c-.1 1.3 1 2.4 2.4 2.4zm0 14.4c1.3 0 2.4-1.1 2.4-2.4 0-1.3-1.1-2.4-2.4-2.4s-2.4 1.1-2.4 2.4c-.1 1.3 1 2.4 2.4 2.4zm0 14.3c1.3 0 2.4-1.1 2.4-2.4S36.1 47 34.8 47s-2.4 1.1-2.4 2.4 1 2.4 2.4 2.4z"/></svg>