<svg xmlns="http://www.w3.org/2000/svg" width="70" height="77" viewBox="0 0 196.9 217"><style>.st0{fill:#8cc84b}</style><path class="st0" d="M89.6 2.3C95-.8 102-.8 107.4 2.3c27 15.3 54.1 30.5 81.2 45.8 5.1 2.9 8.5 8.5 8.4 14.4v92c0 6.1-3.7 11.9-9.1 14.7-27 15.2-53.9 30.4-80.9 45.6-5.5 3.1-12.6 2.9-18-.5-8.1-4.7-16.2-9.3-24.3-14-1.7-1-3.5-1.8-4.7-3.4 1-1.4 2.9-1.6 4.4-2.2 3.4-1.1 6.5-2.8 9.6-4.5.8-.5 1.7-.3 2.5.1l20.7 12c1.5.9 3-.3 4.2-1 26.5-15 52.9-29.8 79.4-44.8 1-.5 1.5-1.5 1.4-2.6v-91c.1-1.2-.6-2.3-1.7-2.8-26.9-15.1-53.7-30.3-80.6-45.4-1-.7-2.2-.7-3.2 0C70 29.9 43.2 45.1 16.3 60.2c-1.1.5-1.8 1.6-1.7 2.8v91c-.1 1.1.5 2.1 1.5 2.6 7.2 4.1 14.3 8.1 21.5 12.2 4 2.2 9 3.5 13.5 1.8 3.9-1.4 6.7-5.4 6.6-9.6V70.5c-.1-1.3 1.2-2.4 2.5-2.3h10.3c1.4 0 2.4 1.4 2.2 2.8v91c0 8.1-3.3 16.9-10.8 20.8-9.2 4.8-20.6 3.8-29.7-.8-7.9-3.9-15.4-8.6-23.1-12.8-5.4-2.8-9.1-8.6-9.1-14.7v-92c-.1-6 3.5-11.7 8.7-14.6 27-15.1 53.9-30.4 80.9-45.6z"/><path class="st0" d="M113.1 66c11.8-.8 24.3-.4 34.9 5.3 8.2 4.4 12.7 13.8 12.9 22.9-.2 1.2-1.5 1.9-2.7 1.8H148c-1.4.1-2.3-1.3-2.5-2.6-1-4.4-3.4-8.7-7.5-10.8-6.3-3.1-13.6-3-20.4-2.9-5 .3-10.4.7-14.6 3.6-3.3 2.2-4.2 6.7-3.1 10.4 1.1 2.6 4.1 3.4 6.6 4.2 14.2 3.7 29.2 3.3 43.1 8.2 5.8 2 11.4 5.9 13.4 11.9 2.6 8.1 1.4 17.7-4.3 24.2-4.7 5.3-11.4 8.2-18.2 9.8-9 2-18.3 2.1-27.5 1.2-8.6-1-17.5-3.2-24.2-9.1-5.7-4.9-8.4-12.6-8.2-20 .1-1.3 1.3-2.1 2.5-2h10.3c1.4-.1 2.4 1.1 2.5 2.4.6 4.1 2.2 8.5 5.8 11 7 4.5 15.7 4.2 23.7 4.3 6.6-.3 14.1-.4 19.5-4.8 2.9-2.5 3.7-6.7 2.9-10.3-.8-3-4-4.4-6.7-5.4-14-4.4-29.2-2.8-43-7.8-5.6-2-11.1-5.7-13.2-11.5-3-8.2-1.6-18.3 4.7-24.6 6.1-6.1 15-8.5 23.5-9.4z"/></svg>