<svg xmlns="http://www.w3.org/2000/svg" width="104" height="60" viewBox="0 0 294.2 170.9"><style>.st2{fill:#fff176}.st3{fill:#f4511e}.st4{fill:#e64a19}.st6{fill:#ff7043}.st7{opacity:.5;fill:#ffe082;enable-background:new}.st10{fill:#fdd835}.st11{fill:#fff9c4}</style><path id="path9" d="M33.1 170.6c21.8 0 21.8-14.1 43.5-14.1s21.8 14.1 43.5 14.1 21.8-14.1 43.5-14.1 21.8 14.1 43.5 14.1 21.8-14.1 43.5-14.1c20.6 0 21.7 12.6 40.2 14 2.2-9.9 3.4-20 3.4-30.1C294.2 65.6 233.6 5 158.8 5S23.3 65.5 23.3 140.3c0 10 1.1 20 3.3 29.7 2.2.4 4.3.6 6.5.6z" fill="#304ffe"/><path id="rect15" d="M145.6 21.9h35.3v32.6h-35.3V21.9z" fill="#ffd54f"/><path id="rect17" class="st2" d="M145.6 21.9h12.5v32.6h-12.5V21.9z"/><ellipse id="ellipse19" class="st2" cx="157.8" cy="30.1" rx="8.3" ry="10.4"/><path id="path21" class="st3" d="M144.8 18.2c0-10 8.1-18.2 18.2-18.2s18.2 8.2 18.2 18.2"/><path id="path23" class="st4" d="M163.1 0c10 0 18.1 8.1 18.1 18.1v.1h-18.1V0z"/><path id="rect25" class="st3" d="M143.6 17.7h38.8c1.3 0 2.4 1.1 2.4 2.4 0 1.3-1.1 2.4-2.4 2.4h-38.8c-1.3 0-2.4-1.1-2.4-2.4 0-1.4 1.1-2.4 2.4-2.4z"/><path id="polygon27" d="M140.6 155.2l5.1-100.8H181l4.5 95.9-44.9 4.9z" fill="#c5cae9"/><path id="line29" class="st6" d="M181.4 62.1l1.4 26.7"/><path id="polygon31" class="st6" d="M144.3 79.4l-1.4 28 39.9-18.6-1.4-26.7-37.1 17.3z"/><path id="line33" class="st6" d="M184.1 115.1l1.4 26.7"/><path id="polygon35" class="st6" d="M141.5 135l-1.4 28 45.4-21.2-1.4-26.7-42.6 19.9z"/><path id="rect39" class="st4" d="M140.2 39.5h45.5v14.9h-45.5V39.5z"/><path id="rect41" class="st3" d="M140.2 39.5h29.9v14.9h-29.9V39.5z"/><path id="path43" class="st7" d="M162.7 39.5c0 5.4-5 9.8-11.2 9.8-6.2 0-11.2-4.4-11.2-9.8"/><g id="layer1" transform="translate(-111.07 296.27)"><path id="path71" d="M331.4-260.9c1.2 0 2.4.3 3.5.8.7-7.9 7.6-13.7 15.5-13 5.5.5 10.3 4.1 12.2 9.3 5.3 0 9.7 4.3 9.7 9.7 0 5.3-4.3 9.7-9.7 9.7h-31.2c-4.5 0-8.2-3.7-8.2-8.2 0-4.7 3.7-8.3 8.2-8.3z" fill="#2979ff"/><path id="path77" d="M238.7-183c1 0 2 .2 2.9.6.6-6.7 6.5-11.6 13.2-11.1 4.7.4 8.7 3.5 10.3 7.9 4.5-.1 8.3 3.5 8.4 8 .1 4.5-3.5 8.3-8 8.4h-26.9c-3.8 0-6.9-3.1-6.9-6.9s3.1-6.9 7-6.9z" fill="#448aff"/></g><g id="layer2" transform="translate(-111.07 296.27)"><circle id="circle45" class="st10" cx="306.5" cy="-276.9" r="1.5"/><circle id="circle47" class="st11" cx="319.4" cy="-194.4" r="2.5"/><circle id="circle49" class="st11" cx="165" cy="-217.7" r="2.5"/><circle id="circle51" class="st11" cx="206.5" cy="-173.3" r="2.5"/><circle id="circle53" class="st11" cx="308.4" cy="-235.1" r="2.5"/><circle id="circle55" class="st11" cx="362.1" cy="-169.4" r="2.5"/><circle id="circle57" class="st10" cx="159.5" cy="-159.9" r="1.5"/><circle id="circle59" class="st10" cx="173" cy="-189.6" r="1.5"/><circle id="circle61" class="st10" cx="182.1" cy="-197.2" r="1.5"/><circle id="circle63" class="st10" cx="220.6" cy="-231.6" r="1.5"/><circle id="circle65" class="st10" cx="342.3" cy="-227.4" r="1.5"/><circle id="circle67" class="st10" cx="400" cy="-166.1" r="1.5"/><circle id="circle69" class="st10" cx="196.2" cy="-236" r="1.5"/><circle id="circle73" class="st10" cx="326.1" cy="-165.4" r="1.5"/><circle id="circle75" class="st10" cx="370.6" cy="-202.2" r="1.5"/></g><g id="layer3" transform="translate(-111.07 296.27)"><path id="path11" class="st7" d="M257.3-274.8l-139.2-19.9c-.1 0-.3-.1-.4-.1-3.6 0-6.7 13.3-6.7 29.6s3 29.6 6.7 29.6c.1 0 .3 0 .4-.1l139.2-19.9v-19.2z"/></g><g id="layer6"><path id="polygon37" d="M182.3 54.3h-17.8v91.3l21.5 9.6-3.7-100.9z" opacity=".5" fill="#304ffe"/></g><g id="layer5" transform="translate(-111.07 296.27)"><path id="path79" d="M231.6-125.4c21.8 0 21.8-14.1 43.5-14.1s21.8 14.1 43.5 14.1c18.5 0 21.3-10.2 35-13.2-18.8-10.3-46.8-16.8-78.1-16.8-31.5 0-59.6 6.6-78.4 16.9 13.4 3.2 16.3 13.1 34.5 13.1z" fill="#00c853"/><path id="path81" d="M231.7-125.6c21.8 0 21.8-14.1 43.5-14.1h.5l-.2-15.5c-31.1 0-59.1 6.4-77.8 16.6 12.9 3.3 15.9 13 34 13z" fill="#64dd17"/></g></svg>