<svg xmlns="http://www.w3.org/2000/svg" viewBox="0 0 143.4 133" width="20" height="20"><path fill="#fff" d="M137.2 75.2c2 2.9 3.6 6 4.6 9.4 1.1 3.4 1.6 6.9 1.6 10.5 0 5.2-1.1 10.1-3.1 14.7-2.1 4.6-5 8.6-8.6 12.1-3.7 3.5-7.9 6.2-12.8 8.2-4.9 2-10.1 2.9-15.6 2.9-7.8 0-14.8-1.8-21.1-5.5-1.7.2-3.5.4-5.2.5-1.8.1-3.5.2-5.3.2-9.1 0-17.7-1.6-25.7-4.9-8-3.3-15-7.7-21.1-13.4-6-5.7-10.8-12.3-14.2-19.9-3.4-7.6-5.2-15.8-5.2-24.5 0-1.7.1-3.3.3-4.8l.6-4.5C2.1 50.3 0 43.9 0 37c0-5.1 1.1-9.9 3.1-14.4 2.1-4.5 4.9-8.5 8.6-11.8 3.7-3.3 8-6 12.8-7.9C29.5.9 34.7 0 40.2 0c4 0 7.7.5 11.2 1.4 3.5 1 6.8 2.3 9.9 4 1.7-.2 3.4-.4 5.2-.5 1.8-.1 3.5-.2 5.2-.2 9.2 0 17.8 1.6 25.8 4.8 8 3.2 15.1 7.5 21.1 13.1 6 5.6 10.8 12 14.3 19.3 3.4 7.3 5.2 15.2 5.2 23.6-.1 3.1-.3 6.3-.9 9.7zm-34 19c2.8-3.7 4.2-8.1 4.2-13.1 0-3.9-.8-7.3-2.3-10-1.6-2.7-3.9-4.9-6.8-6.7-2.7-1.7-6.2-3.3-10.5-4.7-4.3-1.1-8.9-2.1-13.7-3.2l-5.3-1.2c-1.4-.3-2.6-.6-3.4-.8-.9-.2-1.8-.5-2.7-.8-.8-.3-1.6-.6-2.5-1-1.6-.7-3-1.6-4.1-2.7-.8-.9-1.3-2.2-1.3-3.8 0-2.3 1.4-4.3 4.1-6.1 3.1-1.7 6.8-2.5 11.2-2.4 5.1 0 8.7.8 10.8 2.3 2.5 1.8 4.4 4 5.8 6.6 1.2 1.9 2.4 3.3 3.7 4.3 1.2.9 2.9 1.4 4.9 1.5 2.4 0 4.3-.8 5.9-2.4 1.6-1.5 2.4-3.1 2.3-5 0-2.2-.6-4.3-1.8-6.3-1.2-1.9-3.2-3.9-5.9-6.1-1.4-.9-2.9-1.8-4.5-2.6s-3.5-1.5-5.5-2.1c-2.1-.6-4.3-1-6.6-1.3-2.3-.3-4.9-.4-7.7-.4-7.1 0-13.1.9-18 2.6-5.2 1.8-9.2 4.3-11.9 7.5-2.7 3.1-4 6.8-4 11.1 0 4.5 1.3 8.2 3.9 11.1 2.6 3.1 6.1 5.4 10.5 7 4.2 1.7 9.6 3.2 16.2 4.4 2.5.6 4.6 1.1 6.5 1.5 1.9.4 3.6.8 5.1 1.3 2.8.8 5.1 2.1 6.8 3.9 1.9 1.6 2.8 3.6 2.8 6.1 0 3.5-1.7 6.3-5.1 8.4-3.2 2.2-7.5 3.3-12.9 3.2-4.3 0-7.5-.5-9.5-1.5-2.5-1.1-4.3-2.6-5.5-4.3-1.5-1.9-2.7-4.1-3.7-6.4-.9-2.2-2-3.9-3.5-5-1.4-1.1-3-1.7-5-1.7-2.5 0-4.5.7-6.1 2-1.6 1.5-2.4 3.3-2.3 5.3 0 3.5 1.3 7 3.9 10.5 2.6 3.6 5.8 6.4 9.8 8.5 5.9 3 13.2 4.6 22.1 4.6 7.2 0 13.6-1.1 19.2-3.2 5.7-2.2 9.8-5.2 12.4-8.9z"/></svg>