<svg xmlns="http://www.w3.org/2000/svg" viewBox="0 0 70 98" width="25" height="35"><path d="M69.7 19.3l-6.3 70.9L35 98 6.6 90.1.3 19.3h69.4z" fill="#264de4"/><path d="M58 85.6L63.4 25H35v67l23-6.4z" fill="#2965f1"/><path d="M14.8 51.3l.8 8.7H35v-8.7H14.8zM35 33.7H13.2l.8 8.7h21v-8.7zM35 83v-9l-9.7-2.6-.6-6.9H16L17.2 78 35 83z" fill="#ebebeb"/><path d="M16.6 0h10.5v4.4H21v4.4h6.1v4.4H16.6V0zm12.7 0h10.5v3.8h-6.1v.8h6.1v8.8H29.3v-4h6.1v-.8h-6.1V0zm12.6 0h10.5v3.8h-6.1v.8h6.1v8.8H41.9v-4H48v-.8h-6.1V0z"/><path d="M45.7 60l-1 11.3-9.7 2.6v9L52.8 78l.1-1.5 2-22.9.2-2.3 1.6-17.6H35v8.7h12.2l-.8 8.9H35V60h10.7z" fill="#fff"/></svg>