<svg xmlns="http://www.w3.org/2000/svg" width="17" height="25" viewBox="0 0 49.6 70"><path d="M4.6 0h3.1v3.1h2.9V0h3.1v9.4h-3.1V6.3H7.8v3.1H4.6M18 3.1h-2.8V0h8.7v3.1h-2.8v6.3H18M25.3 0h3.3l2 3.3 2-3.3h3.3v9.4h-3.1V4.8l-2.2 3.4-2.2-3.4v4.7h-3.1M37.5 0h3.1v6.3h4.5v3.1h-7.6"/><path d="M4.5 64.4L0 13.8h49.6l-4.5 50.6L24.8 70" fill="#e44d26"/><path d="M24.8 65.7V17.9h20.3l-3.9 43.2" fill="#f16529"/><path d="M9.2 24.1h15.6v6.2H16l.6 6.4h8.2v6.2H10.9m.3 3.1h6.2l.4 5 6.9 1.9v6.5L12 55.8" fill="#ebebeb"/><path d="M40.3 24.1H24.8v6.2h15m-.6 6.4H24.8v6.2h7.7l-.7 8.1-6.9 1.9v6.5l12.7-3.5" fill="#fff"/></svg>